<?xml version="1.0" standalone="no"?>
<!DOCTYPE svg PUBLIC "-//W3C//DTD SVG 20010904//EN"
 "http://www.w3.org/TR/2001/REC-SVG-20010904/DTD/svg10.dtd">
<svg version="1.0" xmlns="http://www.w3.org/2000/svg"
 width="200.000000pt" height="200.000000pt" viewBox="0 0 200.000000 200.000000"
 preserveAspectRatio="xMidYMid meet">
<metadata>
Created by potrace 1.11, written by Peter Selinger 2001-2013
</metadata>
<g transform="translate(0.000000,200.000000) scale(0.100000,-0.100000)"
fill="#000000" stroke="none">
<path d="M710 1868 c-24 -46 -51 -96 -60 -113 -9 -16 -22 -40 -29 -53 l-12
-23 -21 23 c-11 13 -45 51 -75 86 -31 35 -64 74 -75 87 -23 29 -34 31 -41 8
-17 -57 -80 -229 -86 -236 -4 -4 -49 11 -99 32 -51 22 -91 37 -89 33 2 -4 25
-73 52 -154 l50 -148 535 0 535 0 51 150 c29 83 47 150 42 150 -5 0 -46 -16
-90 -35 -45 -20 -84 -32 -88 -28 -4 4 -26 62 -50 128 -24 66 -45 122 -47 125
-4 4 -12 -4 -122 -130 -41 -47 -77 -84 -80 -84 -3 1 -17 23 -31 50 -84 159
-114 214 -120 214 -4 0 -26 -37 -50 -82z m120 -128 c34 -55 67 -100 72 -100 6
0 48 36 94 80 46 44 87 80 91 80 5 0 25 -43 47 -95 21 -53 42 -97 46 -100 4
-3 44 9 89 25 44 16 81 27 81 24 0 -2 -21 -54 -47 -114 l-46 -110 -497 0 -497
0 -46 110 c-26 60 -47 112 -47 114 0 3 37 -8 81 -24 45 -16 85 -28 89 -25 4 3
25 47 46 100 22 52 42 95 47 95 4 0 45 -36 91 -80 46 -44 88 -80 94 -80 5 0
38 45 72 100 35 55 66 100 70 100 4 0 35 -45 70 -100z"/>
<path d="M1694 1582 c-6 -4 -24 -32 -39 -62 -16 -30 -31 -57 -32 -59 -5 -7
-32 33 -27 40 2 4 -2 12 -10 18 -10 9 -16 8 -26 -4 -7 -8 -10 -15 -7 -15 3 0
1 -15 -4 -32 -19 -64 -22 -111 -8 -106 8 3 15 21 16 41 1 21 6 44 11 53 7 12
11 10 22 -11 7 -14 17 -25 22 -25 8 0 50 63 60 90 4 8 5 -12 5 -44 -1 -39 2
-60 11 -63 9 -3 11 8 9 44 -2 26 0 68 4 93 8 51 8 52 -7 42z"/>
<path d="M1400 1458 c-31 -21 -59 -61 -31 -44 9 6 10 -7 6 -48 -3 -32 -1 -57
5 -61 5 -3 10 1 10 9 0 48 15 59 51 41 29 -15 79 -11 79 6 0 5 -13 9 -29 9
-40 0 -45 13 -22 51 36 58 -5 80 -69 37z m54 -21 c-6 -22 -31 -47 -47 -47 -10
0 -5 41 7 56 5 5 18 11 28 11 15 2 18 -3 12 -20z"/>
<path d="M320 1388 c-46 -13 -96 -51 -118 -91 -15 -29 -17 -83 -22 -574 -3
-297 -1 -539 3 -536 5 3 7 -6 6 -19 -3 -18 9 -37 43 -71 25 -26 53 -47 62 -47
9 0 16 -4 16 -8 0 -4 25 -8 55 -8 30 1 55 -3 55 -9 0 -7 3 -7 8 0 4 6 83 10
199 10 122 0 193 -4 193 -10 0 -7 3 -7 8 0 4 6 55 10 117 10 62 0 113 -4 117
-10 5 -7 8 -7 8 0 0 6 26 10 57 11 49 0 102 7 111 15 1 1 5 2 10 3 12 2 57 48
76 79 9 15 21 25 26 22 5 -3 12 0 16 6 4 7 3 9 -4 5 -6 -3 -14 -1 -18 5 -5 8
1 10 20 7 45 -9 61 18 65 113 1 10 12 19 29 22 22 5 34 -1 69 -38 l41 -43 31
19 c17 10 31 17 31 14 0 -2 18 13 41 34 l41 37 -27 51 c-26 48 -29 93 -5 78 6
-3 7 1 4 9 -6 17 20 23 30 8 2 -4 26 -8 52 -7 l48 0 19 50 c10 28 20 64 22 81
4 28 0 32 -50 57 -45 22 -55 31 -55 52 0 21 10 30 55 52 30 15 55 33 55 40 0
19 -40 136 -49 146 -5 5 -33 4 -62 -2 -49 -9 -56 -8 -75 12 l-20 22 28 54 c33
62 32 64 -52 121 l-57 39 -44 -45 c-41 -40 -48 -44 -71 -35 -22 8 -28 18 -33
58 -4 26 -8 54 -10 61 -4 10 -38 17 -66 14 -4 -1 -13 13 -20 31 -16 38 -61 84
-97 99 -34 15 -861 19 -912 6z m856 -37 c-3 -4 5 -6 18 -4 16 3 34 -5 60 -27
20 -18 34 -36 31 -40 -3 -5 0 -10 6 -12 16 -5 20 -327 5 -347 -8 -11 -8 -13 1
-8 15 9 14 -614 -2 -625 -7 -5 -6 -8 1 -8 7 0 10 -20 7 -57 -4 -62 -20 -92
-67 -127 -27 -20 -41 -21 -462 -24 l-435 -3 -41 23 c-24 14 -48 38 -59 60 -18
35 -19 66 -19 565 0 454 2 532 15 557 16 30 43 55 58 52 5 0 13 6 18 15 8 15
52 17 439 17 237 1 428 -3 426 -7z m204 -156 c5 -13 10 -41 12 -61 2 -26 8
-38 20 -42 10 -2 16 -8 13 -12 -2 -4 7 -5 20 -2 14 2 25 0 25 -5 0 -15 29 -11
34 4 4 8 11 11 18 7 7 -4 10 -4 6 1 -4 4 6 21 22 37 26 24 33 27 50 16 11 -7
20 -16 20 -20 0 -5 6 -8 14 -8 25 0 25 -28 0 -79 l-26 -51 29 -40 c30 -43 29
-43 124 -24 20 4 28 0 32 -13 3 -10 10 -33 16 -51 10 -33 10 -33 -44 -59 l-54
-26 0 -53 c0 -44 4 -54 20 -59 10 -4 19 -10 19 -14 0 -4 10 -7 22 -8 40 -3 47
-23 31 -77 -13 -45 -16 -48 -41 -43 -99 19 -95 20 -125 -23 l-28 -41 26 -51
c25 -49 25 -52 8 -70 -10 -11 -30 -26 -44 -34 -25 -12 -28 -11 -67 30 l-42 44
-45 -17 c-47 -16 -48 -18 -59 -101 -1 -14 -10 -26 -19 -28 -15 -3 -17 12 -17
133 0 123 2 136 16 125 12 -11 15 -11 12 -1 -2 8 5 15 14 16 28 5 85 43 111
75 14 16 28 26 32 22 5 -4 5 -2 2 4 -3 6 0 30 7 55 36 121 -33 250 -150 281
l-44 12 0 138 c0 136 9 169 30 113z m27 -305 c54 -19 111 -108 112 -176 2 -84
-83 -184 -157 -184 -15 0 -17 17 -16 168 0 92 3 173 7 179 4 6 1 14 -5 16 -25
10 30 7 59 -3z"/>
<path d="M341 1243 c-29 -23 4 -29 149 -28 90 0 140 -3 140 -10 0 -7 3 -7 8 0
12 17 265 13 286 -4 15 -12 17 -12 14 0 -2 11 19 14 120 15 76 1 127 5 134 12
8 8 7 13 -6 18 -10 4 -201 7 -424 8 -307 1 -409 -2 -421 -11z"/>
<path d="M337 1148 c-8 -5 -8 -10 0 -20 9 -10 54 -13 200 -12 124 1 193 -3
202 -10 12 -9 13 -8 7 2 -6 10 -3 13 10 12 47 -5 65 0 62 17 -3 16 -23 18
-237 18 -128 0 -238 -3 -244 -7z"/>
<path d="M370 1100 c0 -5 5 -10 11 -10 5 0 7 5 4 10 -3 6 -8 10 -11 10 -2 0
-4 -4 -4 -10z"/>
<path d="M339 1055 c-1 0 -3 -9 -4 -20 -2 -20 3 -20 324 -18 179 2 332 3 339
3 8 0 12 8 10 18 -3 16 -27 17 -336 17 -182 0 -333 0 -333 0z"/>
<path d="M798 933 c-19 -23 -168 -395 -168 -420 0 -11 9 -29 20 -40 16 -18 25
-20 49 -13 16 4 32 5 36 2 4 -4 5 -2 4 3 -2 6 3 21 11 35 8 14 15 30 16 36 2
11 9 30 44 109 8 17 14 32 15 35 0 3 7 16 15 30 7 14 13 26 12 28 -7 10 0 22
10 16 6 -4 8 -3 4 4 -3 6 3 35 14 64 25 66 25 83 0 108 -25 25 -62 26 -82 3z"/>
<path d="M455 810 c-112 -67 -127 -82 -119 -119 3 -14 6 -31 6 -38 1 -7 5 -10
9 -7 8 5 112 -55 117 -68 2 -4 9 -8 16 -8 7 0 21 -8 32 -18 10 -9 35 -19 55
-20 32 -3 38 0 51 28 22 46 13 66 -50 107 l-56 35 40 23 c60 35 83 62 78 93
-6 31 -29 52 -58 52 -12 0 -66 -27 -121 -60z"/>
<path d="M912 854 c-17 -12 -22 -24 -20 -49 2 -30 9 -37 60 -66 l58 -33 -27
-23 c-16 -12 -33 -22 -40 -23 -17 0 -53 -49 -53 -71 0 -11 10 -29 23 -41 12
-13 21 -26 20 -30 -3 -7 52 21 119 61 21 12 43 19 49 15 7 -4 9 -3 5 4 -8 13
60 56 75 46 8 -4 9 -3 5 4 -4 7 -3 19 2 29 21 36 -5 66 -112 131 -57 34 -113
62 -123 62 -10 0 -29 -7 -41 -16z"/>
<path d="M337 398 c-27 -17 14 -29 97 -29 65 0 85 -3 79 -12 -5 -9 -3 -9 8 0
21 17 243 17 233 0 -5 -9 -3 -9 7 1 7 6 30 12 51 12 27 0 38 4 38 15 0 8 -6
16 -12 16 -49 6 -492 3 -501 -3z"/>
<path d="M336 294 c-2 -6 -2 -15 1 -18 4 -3 190 -6 415 -6 385 0 409 1 406 18
-3 16 -31 17 -410 18 -316 1 -408 -2 -412 -12z"/>
<path d="M334 199 c-16 -26 21 -29 327 -29 300 0 320 1 317 18 -3 16 -27 17
-321 18 -177 1 -320 -2 -323 -7z"/>
</g>
</svg>
